<mxfile host="app.diagrams.net" modified="2021-11-03T02:16:08.579Z" agent="5.0 (Windows NT 10.0; Win64; x64) AppleWebKit/537.36 (KHTML, like Gecko) Chrome/95.0.4638.54 Safari/537.36" etag="pFr3yvXCQXCupxLF8i8k" version="15.6.6" type="github">
  <diagram name="Page-1" id="2cc2dc42-3aac-f2a9-1cec-7a8b7cbee084">
    <mxGraphModel dx="4063" dy="2177" grid="1" gridSize="10" guides="1" tooltips="1" connect="1" arrows="1" fold="1" page="1" pageScale="1" pageWidth="1100" pageHeight="850" background="none" math="0" shadow="0">
      <root>
        <mxCell id="0" />
        <mxCell id="1" parent="0" />
        <mxCell id="7026571954dc6520-1" value="" style="strokeWidth=1;shadow=0;dashed=0;align=center;html=1;shape=mxgraph.mockup.containers.browserWindow;rSize=0;strokeColor=#666666;mainText=,;recursiveResize=0;rounded=0;labelBackgroundColor=none;fontFamily=Verdana;fontSize=12" parent="1" vertex="1">
          <mxGeometry x="30" y="20" width="1050" height="820" as="geometry" />
        </mxCell>
        <mxCell id="OShMLWF479sqlYJ8TnIr-4" value="" style="rounded=1;whiteSpace=wrap;html=1;fillColor=none;strokeColor=#C7C7C7;" parent="7026571954dc6520-1" vertex="1">
          <mxGeometry x="702" y="115" width="154" height="20" as="geometry" />
        </mxCell>
        <mxCell id="7026571954dc6520-2" value="Main Page" style="strokeWidth=1;shadow=0;dashed=0;align=center;html=1;shape=mxgraph.mockup.containers.anchor;fontSize=17;fontColor=#666666;align=left;" parent="7026571954dc6520-1" vertex="1">
          <mxGeometry x="60" y="12" width="110" height="26" as="geometry" />
        </mxCell>
        <mxCell id="7026571954dc6520-3" value="https://www.Team3Cookbook.com" style="strokeWidth=1;shadow=0;dashed=0;align=center;html=1;shape=mxgraph.mockup.containers.anchor;rSize=0;fontSize=17;fontColor=#666666;align=left;" parent="7026571954dc6520-1" vertex="1">
          <mxGeometry x="130" y="60" width="250" height="26" as="geometry" />
        </mxCell>
        <mxCell id="7026571954dc6520-4" value="Explore Recipes" style="text;html=1;points=[];align=left;verticalAlign=top;spacingTop=-4;fontSize=30;fontFamily=Verdana" parent="7026571954dc6520-1" vertex="1">
          <mxGeometry x="30" y="155" width="340" height="50" as="geometry" />
        </mxCell>
        <mxCell id="7026571954dc6520-6" value="My CookBook" style="text;html=1;points=[];align=left;verticalAlign=top;spacingTop=-4;fontSize=15;fontFamily=Verdana" parent="7026571954dc6520-1" vertex="1">
          <mxGeometry x="257" y="112" width="120" height="30" as="geometry" />
        </mxCell>
        <mxCell id="7026571954dc6520-21" value="" style="verticalLabelPosition=bottom;shadow=0;dashed=0;align=center;html=1;verticalAlign=top;strokeWidth=1;shape=mxgraph.mockup.markup.line;strokeColor=#999999;rounded=0;labelBackgroundColor=none;fillColor=#ffffff;fontFamily=Verdana;fontSize=12;fontColor=#000000;direction=south;" parent="7026571954dc6520-1" vertex="1">
          <mxGeometry x="515" y="263" width="20" height="525" as="geometry" />
        </mxCell>
        <mxCell id="OShMLWF479sqlYJ8TnIr-1" value="" style="verticalLabelPosition=bottom;shadow=0;dashed=0;align=center;html=1;verticalAlign=top;strokeWidth=1;shape=mxgraph.mockup.markup.line;strokeColor=#999999;rounded=0;labelBackgroundColor=none;fillColor=#ffffff;fontFamily=Verdana;fontSize=12;fontColor=#000000;" parent="7026571954dc6520-1" vertex="1">
          <mxGeometry y="131" width="1050" height="20" as="geometry" />
        </mxCell>
        <mxCell id="OShMLWF479sqlYJ8TnIr-2" value="Account" style="text;html=1;points=[];align=left;verticalAlign=top;spacingTop=-4;fontSize=15;fontFamily=Verdana" parent="7026571954dc6520-1" vertex="1">
          <mxGeometry x="950" y="112" width="80" height="30" as="geometry" />
        </mxCell>
        <mxCell id="OShMLWF479sqlYJ8TnIr-3" value="Search..." style="text;html=1;points=[];align=left;verticalAlign=top;spacingTop=-4;fontSize=15;fontFamily=Verdana" parent="7026571954dc6520-1" vertex="1">
          <mxGeometry x="706" y="112" width="120" height="30" as="geometry" />
        </mxCell>
        <mxCell id="OShMLWF479sqlYJ8TnIr-5" value="Build Recipe" style="text;html=1;points=[];align=left;verticalAlign=top;spacingTop=-4;fontSize=15;fontFamily=Verdana" parent="7026571954dc6520-1" vertex="1">
          <mxGeometry x="150" y="112" width="120" height="30" as="geometry" />
        </mxCell>
        <mxCell id="OShMLWF479sqlYJ8TnIr-6" value="Exolore Recipes" style="text;html=1;points=[];align=left;verticalAlign=top;spacingTop=-4;fontSize=15;fontFamily=Verdana" parent="7026571954dc6520-1" vertex="1">
          <mxGeometry x="15" y="112" width="120" height="30" as="geometry" />
        </mxCell>
        <mxCell id="OShMLWF479sqlYJ8TnIr-8" value="" style="rounded=1;whiteSpace=wrap;html=1;fillColor=#dae8fc;strokeColor=#6c8ebf;" parent="7026571954dc6520-1" vertex="1">
          <mxGeometry x="820" y="115" width="36" height="20" as="geometry" />
        </mxCell>
        <mxCell id="7026571954dc6520-19" value="&lt;b&gt;Breads&lt;/b&gt;" style="strokeWidth=1;shadow=0;dashed=0;align=center;html=1;shape=mxgraph.mockup.buttons.button;strokeColor=#666666;mainText=;buttonStyle=round;fontSize=17;fontStyle=0;fillColor=none;whiteSpace=wrap;rounded=0;labelBackgroundColor=none;" parent="7026571954dc6520-1" vertex="1">
          <mxGeometry x="30" y="293" width="450" height="60" as="geometry" />
        </mxCell>
        <mxCell id="OShMLWF479sqlYJ8TnIr-9" value="&lt;b&gt;Deserts&lt;/b&gt;" style="strokeWidth=1;shadow=0;dashed=0;align=center;html=1;shape=mxgraph.mockup.buttons.button;strokeColor=#666666;mainText=;buttonStyle=round;fontSize=17;fontStyle=0;fillColor=none;whiteSpace=wrap;rounded=0;labelBackgroundColor=none;" parent="7026571954dc6520-1" vertex="1">
          <mxGeometry x="30" y="373" width="450" height="60" as="geometry" />
        </mxCell>
        <mxCell id="OShMLWF479sqlYJ8TnIr-10" value="&lt;b&gt;Main Dishes&lt;/b&gt;" style="strokeWidth=1;shadow=0;dashed=0;align=center;html=1;shape=mxgraph.mockup.buttons.button;strokeColor=#666666;mainText=;buttonStyle=round;fontSize=17;fontStyle=0;fillColor=none;whiteSpace=wrap;rounded=0;labelBackgroundColor=none;" parent="7026571954dc6520-1" vertex="1">
          <mxGeometry x="30" y="453" width="450" height="60" as="geometry" />
        </mxCell>
        <mxCell id="OShMLWF479sqlYJ8TnIr-11" value="&lt;b&gt;Side Dishes&lt;/b&gt;" style="strokeWidth=1;shadow=0;dashed=0;align=center;html=1;shape=mxgraph.mockup.buttons.button;strokeColor=#666666;mainText=;buttonStyle=round;fontSize=17;fontStyle=0;fillColor=none;whiteSpace=wrap;rounded=0;labelBackgroundColor=none;" parent="7026571954dc6520-1" vertex="1">
          <mxGeometry x="30" y="533" width="450" height="60" as="geometry" />
        </mxCell>
        <mxCell id="OShMLWF479sqlYJ8TnIr-12" value="&lt;b&gt;Seasonal Dishes&lt;/b&gt;" style="strokeWidth=1;shadow=0;dashed=0;align=center;html=1;shape=mxgraph.mockup.buttons.button;strokeColor=#666666;mainText=;buttonStyle=round;fontSize=17;fontStyle=0;fillColor=none;whiteSpace=wrap;rounded=0;labelBackgroundColor=none;" parent="7026571954dc6520-1" vertex="1">
          <mxGeometry x="30" y="613" width="450" height="60" as="geometry" />
        </mxCell>
        <mxCell id="OShMLWF479sqlYJ8TnIr-13" value="&lt;b&gt;Seasonal Dishes&lt;/b&gt;" style="strokeWidth=1;shadow=0;dashed=0;align=center;html=1;shape=mxgraph.mockup.buttons.button;strokeColor=#666666;mainText=;buttonStyle=round;fontSize=17;fontStyle=0;fillColor=none;whiteSpace=wrap;rounded=0;labelBackgroundColor=none;" parent="7026571954dc6520-1" vertex="1">
          <mxGeometry x="30" y="693" width="450" height="60" as="geometry" />
        </mxCell>
        <mxCell id="OShMLWF479sqlYJ8TnIr-14" value="&lt;b&gt;Breakfast&lt;/b&gt;" style="strokeWidth=1;shadow=0;dashed=0;align=center;html=1;shape=mxgraph.mockup.buttons.button;strokeColor=#666666;mainText=;buttonStyle=round;fontSize=17;fontStyle=0;fillColor=none;whiteSpace=wrap;rounded=0;labelBackgroundColor=none;" parent="7026571954dc6520-1" vertex="1">
          <mxGeometry x="570" y="293" width="450" height="60" as="geometry" />
        </mxCell>
        <mxCell id="OShMLWF479sqlYJ8TnIr-15" value="&lt;b&gt;Lunch&lt;/b&gt;" style="strokeWidth=1;shadow=0;dashed=0;align=center;html=1;shape=mxgraph.mockup.buttons.button;strokeColor=#666666;mainText=;buttonStyle=round;fontSize=17;fontStyle=0;fillColor=none;whiteSpace=wrap;rounded=0;labelBackgroundColor=none;" parent="7026571954dc6520-1" vertex="1">
          <mxGeometry x="570" y="453" width="450" height="60" as="geometry" />
        </mxCell>
        <mxCell id="OShMLWF479sqlYJ8TnIr-16" value="&lt;b&gt;Dinner&lt;/b&gt;" style="strokeWidth=1;shadow=0;dashed=0;align=center;html=1;shape=mxgraph.mockup.buttons.button;strokeColor=#666666;mainText=;buttonStyle=round;fontSize=17;fontStyle=0;fillColor=none;whiteSpace=wrap;rounded=0;labelBackgroundColor=none;" parent="7026571954dc6520-1" vertex="1">
          <mxGeometry x="570" y="533" width="450" height="60" as="geometry" />
        </mxCell>
        <mxCell id="OShMLWF479sqlYJ8TnIr-17" value="&lt;b&gt;Salads&lt;/b&gt;" style="strokeWidth=1;shadow=0;dashed=0;align=center;html=1;shape=mxgraph.mockup.buttons.button;strokeColor=#666666;mainText=;buttonStyle=round;fontSize=17;fontStyle=0;fillColor=none;whiteSpace=wrap;rounded=0;labelBackgroundColor=none;" parent="7026571954dc6520-1" vertex="1">
          <mxGeometry x="570" y="613" width="450" height="60" as="geometry" />
        </mxCell>
        <mxCell id="OShMLWF479sqlYJ8TnIr-18" value="&lt;b&gt;Brunch&lt;/b&gt;" style="strokeWidth=1;shadow=0;dashed=0;align=center;html=1;shape=mxgraph.mockup.buttons.button;strokeColor=#666666;mainText=;buttonStyle=round;fontSize=17;fontStyle=0;fillColor=none;whiteSpace=wrap;rounded=0;labelBackgroundColor=none;" parent="7026571954dc6520-1" vertex="1">
          <mxGeometry x="570" y="373" width="450" height="60" as="geometry" />
        </mxCell>
        <mxCell id="OShMLWF479sqlYJ8TnIr-19" value="&lt;b&gt;Salads&lt;/b&gt;" style="strokeWidth=1;shadow=0;dashed=0;align=center;html=1;shape=mxgraph.mockup.buttons.button;strokeColor=#666666;mainText=;buttonStyle=round;fontSize=17;fontStyle=0;fillColor=none;whiteSpace=wrap;rounded=0;labelBackgroundColor=none;" parent="7026571954dc6520-1" vertex="1">
          <mxGeometry x="570" y="693" width="450" height="60" as="geometry" />
        </mxCell>
        <mxCell id="7026571954dc6520-36" value="Lorem ipsum dolor sit amet, consectetur adipisicing elit, sed do eiusmod tempor incididunt ut labore et dolore magna aliqua. Ut enim ad minim veniam, quis nostrud exercitation ullamco laboris nisi ut aliquip ex ea commodo consequat. Duis aute irure dolor in reprehenderit in voluptate velit esse cillum dolore eu fugiat nulla pariatur.&amp;nbsp;" style="text;spacingTop=-5;whiteSpace=wrap;html=1;align=left;fontSize=12;fontFamily=Helvetica;fillColor=none;strokeColor=none;rounded=0;shadow=1;labelBackgroundColor=none;" parent="7026571954dc6520-1" vertex="1">
          <mxGeometry x="30" y="200" width="460" height="125" as="geometry" />
        </mxCell>
        <mxCell id="7026571954dc6520-15" value="" style="verticalLabelPosition=bottom;shadow=0;dashed=0;align=center;html=1;verticalAlign=top;strokeWidth=1;shape=mxgraph.mockup.markup.line;strokeColor=#999999;rounded=0;labelBackgroundColor=none;fillColor=#ffffff;fontFamily=Verdana;fontSize=12;fontColor=#000000;" parent="1" vertex="1">
          <mxGeometry x="1440" y="240" width="1050" height="20" as="geometry" />
        </mxCell>
        <mxCell id="OShMLWF479sqlYJ8TnIr-46" value="" style="strokeWidth=1;shadow=0;dashed=0;align=center;html=1;shape=mxgraph.mockup.containers.browserWindow;rSize=0;strokeColor=#666666;mainText=,;recursiveResize=0;rounded=0;labelBackgroundColor=none;fontFamily=Verdana;fontSize=12;fillColor=default;fontColor=default;" parent="1" vertex="1">
          <mxGeometry x="1125" y="15" width="1050" height="820" as="geometry" />
        </mxCell>
        <mxCell id="OShMLWF479sqlYJ8TnIr-47" value="" style="rounded=1;whiteSpace=wrap;html=1;fillColor=none;strokeColor=#C7C7C7;" parent="OShMLWF479sqlYJ8TnIr-46" vertex="1">
          <mxGeometry x="702" y="115" width="154" height="20" as="geometry" />
        </mxCell>
        <mxCell id="OShMLWF479sqlYJ8TnIr-48" value="Main Page" style="strokeWidth=1;shadow=0;dashed=0;align=center;html=1;shape=mxgraph.mockup.containers.anchor;fontSize=17;fontColor=#666666;align=left;" parent="OShMLWF479sqlYJ8TnIr-46" vertex="1">
          <mxGeometry x="60" y="12" width="110" height="26" as="geometry" />
        </mxCell>
        <mxCell id="OShMLWF479sqlYJ8TnIr-49" value="https://www.Team3Cookbook.com" style="strokeWidth=1;shadow=0;dashed=0;align=center;html=1;shape=mxgraph.mockup.containers.anchor;rSize=0;fontSize=17;fontColor=#666666;align=left;" parent="OShMLWF479sqlYJ8TnIr-46" vertex="1">
          <mxGeometry x="130" y="60" width="250" height="26" as="geometry" />
        </mxCell>
        <mxCell id="OShMLWF479sqlYJ8TnIr-50" value="Deserts" style="text;html=1;points=[];align=left;verticalAlign=top;spacingTop=-4;fontSize=30;fontFamily=Verdana;fontColor=default;" parent="OShMLWF479sqlYJ8TnIr-46" vertex="1">
          <mxGeometry x="30" y="175" width="340" height="50" as="geometry" />
        </mxCell>
        <mxCell id="OShMLWF479sqlYJ8TnIr-51" value="My Cookbook" style="text;html=1;points=[];align=left;verticalAlign=top;spacingTop=-4;fontSize=15;fontFamily=Verdana" parent="OShMLWF479sqlYJ8TnIr-46" vertex="1">
          <mxGeometry x="257" y="112" width="120" height="30" as="geometry" />
        </mxCell>
        <mxCell id="OShMLWF479sqlYJ8TnIr-52" value="" style="verticalLabelPosition=bottom;shadow=0;dashed=0;align=center;html=1;verticalAlign=top;strokeWidth=1;shape=mxgraph.mockup.markup.line;strokeColor=#999999;rounded=0;labelBackgroundColor=none;fillColor=#ffffff;fontFamily=Verdana;fontSize=12;fontColor=#000000;direction=south;" parent="OShMLWF479sqlYJ8TnIr-46" vertex="1">
          <mxGeometry x="335" y="255" width="20" height="525" as="geometry" />
        </mxCell>
        <mxCell id="OShMLWF479sqlYJ8TnIr-53" value="" style="verticalLabelPosition=bottom;shadow=0;dashed=0;align=center;html=1;verticalAlign=top;strokeWidth=1;shape=mxgraph.mockup.markup.line;strokeColor=#999999;rounded=0;labelBackgroundColor=none;fillColor=#ffffff;fontFamily=Verdana;fontSize=12;fontColor=#000000;" parent="OShMLWF479sqlYJ8TnIr-46" vertex="1">
          <mxGeometry y="131" width="1050" height="20" as="geometry" />
        </mxCell>
        <mxCell id="OShMLWF479sqlYJ8TnIr-54" value="Account" style="text;html=1;points=[];align=left;verticalAlign=top;spacingTop=-4;fontSize=15;fontFamily=Verdana" parent="OShMLWF479sqlYJ8TnIr-46" vertex="1">
          <mxGeometry x="950" y="112" width="80" height="30" as="geometry" />
        </mxCell>
        <mxCell id="OShMLWF479sqlYJ8TnIr-55" value="Search..." style="text;html=1;points=[];align=left;verticalAlign=top;spacingTop=-4;fontSize=15;fontFamily=Verdana" parent="OShMLWF479sqlYJ8TnIr-46" vertex="1">
          <mxGeometry x="706" y="112" width="120" height="30" as="geometry" />
        </mxCell>
        <mxCell id="OShMLWF479sqlYJ8TnIr-56" value="Build Recipe" style="text;html=1;points=[];align=left;verticalAlign=top;spacingTop=-4;fontSize=15;fontFamily=Verdana" parent="OShMLWF479sqlYJ8TnIr-46" vertex="1">
          <mxGeometry x="150" y="112" width="120" height="30" as="geometry" />
        </mxCell>
        <mxCell id="OShMLWF479sqlYJ8TnIr-57" value="Exolore Recipes" style="text;html=1;points=[];align=left;verticalAlign=top;spacingTop=-4;fontSize=15;fontFamily=Verdana" parent="OShMLWF479sqlYJ8TnIr-46" vertex="1">
          <mxGeometry x="15" y="112" width="120" height="30" as="geometry" />
        </mxCell>
        <mxCell id="OShMLWF479sqlYJ8TnIr-58" value="" style="rounded=1;whiteSpace=wrap;html=1;fillColor=#dae8fc;strokeColor=#6c8ebf;" parent="OShMLWF479sqlYJ8TnIr-46" vertex="1">
          <mxGeometry x="820" y="115" width="36" height="20" as="geometry" />
        </mxCell>
        <mxCell id="OShMLWF479sqlYJ8TnIr-59" value="&lt;b&gt;Recipe&amp;nbsp;1&lt;/b&gt;" style="strokeWidth=1;shadow=0;dashed=0;align=center;html=1;shape=mxgraph.mockup.buttons.button;strokeColor=#666666;mainText=;buttonStyle=round;fontSize=17;fontStyle=0;fillColor=none;whiteSpace=wrap;rounded=0;labelBackgroundColor=none;fontColor=default;" parent="OShMLWF479sqlYJ8TnIr-46" vertex="1">
          <mxGeometry x="30" y="293" width="250" height="60" as="geometry" />
        </mxCell>
        <mxCell id="OShMLWF479sqlYJ8TnIr-60" value="&lt;b&gt;Recipe&amp;nbsp;2&lt;/b&gt;" style="strokeWidth=1;shadow=0;dashed=0;align=center;html=1;shape=mxgraph.mockup.buttons.button;strokeColor=#6c8ebf;mainText=;buttonStyle=round;fontSize=17;fontStyle=0;fillColor=#dae8fc;whiteSpace=wrap;rounded=0;labelBackgroundColor=none;fontColor=default;" parent="OShMLWF479sqlYJ8TnIr-46" vertex="1">
          <mxGeometry x="30" y="373" width="250" height="60" as="geometry" />
        </mxCell>
        <mxCell id="OShMLWF479sqlYJ8TnIr-65" value="&lt;b&gt;Recipe&amp;nbsp;3&lt;/b&gt;" style="strokeWidth=1;shadow=0;dashed=0;align=center;html=1;shape=mxgraph.mockup.buttons.button;strokeColor=#666666;mainText=;buttonStyle=round;fontSize=17;fontStyle=0;fillColor=none;whiteSpace=wrap;rounded=0;labelBackgroundColor=none;fontColor=default;" parent="OShMLWF479sqlYJ8TnIr-46" vertex="1">
          <mxGeometry x="30" y="453" width="250" height="60" as="geometry" />
        </mxCell>
        <mxCell id="OShMLWF479sqlYJ8TnIr-66" value="&lt;b&gt;Recipe&amp;nbsp;5&lt;/b&gt;" style="strokeWidth=1;shadow=0;dashed=0;align=center;html=1;shape=mxgraph.mockup.buttons.button;strokeColor=#666666;mainText=;buttonStyle=round;fontSize=17;fontStyle=0;fillColor=none;whiteSpace=wrap;rounded=0;labelBackgroundColor=none;fontColor=default;" parent="OShMLWF479sqlYJ8TnIr-46" vertex="1">
          <mxGeometry x="30" y="615" width="250" height="60" as="geometry" />
        </mxCell>
        <mxCell id="OShMLWF479sqlYJ8TnIr-69" value="&lt;b&gt;Recipe&amp;nbsp;4&lt;/b&gt;" style="strokeWidth=1;shadow=0;dashed=0;align=center;html=1;shape=mxgraph.mockup.buttons.button;strokeColor=#666666;mainText=;buttonStyle=round;fontSize=17;fontStyle=0;fillColor=none;whiteSpace=wrap;rounded=0;labelBackgroundColor=none;fontColor=default;" parent="OShMLWF479sqlYJ8TnIr-46" vertex="1">
          <mxGeometry x="30" y="535" width="250" height="60" as="geometry" />
        </mxCell>
        <mxCell id="1u6Tqb6OwwUfeg6lWyP9-1" value="&lt;b&gt;Recipe&amp;nbsp;7&lt;/b&gt;" style="strokeWidth=1;shadow=0;dashed=0;align=center;html=1;shape=mxgraph.mockup.buttons.button;strokeColor=#666666;mainText=;buttonStyle=round;fontSize=17;fontStyle=0;fillColor=none;whiteSpace=wrap;rounded=0;labelBackgroundColor=none;fontColor=default;" vertex="1" parent="OShMLWF479sqlYJ8TnIr-46">
          <mxGeometry x="30" y="695" width="250" height="60" as="geometry" />
        </mxCell>
        <mxCell id="1u6Tqb6OwwUfeg6lWyP9-5" value="Recipe Name" style="text;html=1;points=[];align=left;verticalAlign=top;spacingTop=-4;fontSize=30;fontFamily=Verdana;fontColor=default;" vertex="1" parent="OShMLWF479sqlYJ8TnIr-46">
          <mxGeometry x="390.31" y="215" width="205" height="50" as="geometry" />
        </mxCell>
        <mxCell id="1u6Tqb6OwwUfeg6lWyP9-15" value="Rating&amp;nbsp;" style="text;html=1;points=[];align=left;verticalAlign=top;spacingTop=-4;fontSize=12;fontFamily=Verdana;whiteSpace=wrap;fontColor=default;" vertex="1" parent="OShMLWF479sqlYJ8TnIr-46">
          <mxGeometry x="390.31" y="265" width="50" height="20" as="geometry" />
        </mxCell>
        <mxCell id="1u6Tqb6OwwUfeg6lWyP9-24" value="" style="verticalLabelPosition=bottom;verticalAlign=top;html=1;shape=mxgraph.basic.star;fontColor=default;fillColor=default;strokeColor=default;" vertex="1" parent="OShMLWF479sqlYJ8TnIr-46">
          <mxGeometry x="441" y="270" width="10" height="10" as="geometry" />
        </mxCell>
        <mxCell id="1u6Tqb6OwwUfeg6lWyP9-25" value="" style="verticalLabelPosition=bottom;verticalAlign=top;html=1;shape=mxgraph.basic.star;fontColor=default;fillColor=default;strokeColor=default;" vertex="1" parent="OShMLWF479sqlYJ8TnIr-46">
          <mxGeometry x="458" y="270" width="10" height="10" as="geometry" />
        </mxCell>
        <mxCell id="1u6Tqb6OwwUfeg6lWyP9-26" value="" style="verticalLabelPosition=bottom;verticalAlign=top;html=1;shape=mxgraph.basic.star;fontColor=default;fillColor=default;strokeColor=default;" vertex="1" parent="OShMLWF479sqlYJ8TnIr-46">
          <mxGeometry x="476" y="270" width="10" height="10" as="geometry" />
        </mxCell>
        <mxCell id="1u6Tqb6OwwUfeg6lWyP9-27" value="" style="verticalLabelPosition=bottom;verticalAlign=top;html=1;shape=mxgraph.basic.star;fontColor=default;fillColor=default;strokeColor=default;" vertex="1" parent="OShMLWF479sqlYJ8TnIr-46">
          <mxGeometry x="493" y="270" width="10" height="10" as="geometry" />
        </mxCell>
        <mxCell id="1u6Tqb6OwwUfeg6lWyP9-28" value="" style="verticalLabelPosition=bottom;verticalAlign=top;html=1;shape=mxgraph.basic.star;fontColor=default;fillColor=default;strokeColor=default;" vertex="1" parent="OShMLWF479sqlYJ8TnIr-46">
          <mxGeometry x="512" y="270" width="10" height="10" as="geometry" />
        </mxCell>
        <mxCell id="1u6Tqb6OwwUfeg6lWyP9-12" value="" style="verticalLabelPosition=bottom;shadow=0;dashed=0;align=center;html=1;verticalAlign=top;strokeWidth=1;shape=mxgraph.mockup.graphics.simpleIcon;strokeColor=#999999;fillColor=#ffffff;rounded=0;labelBackgroundColor=none;fontFamily=Verdana;fontSize=12;fontColor=#000000;" vertex="1" parent="OShMLWF479sqlYJ8TnIr-46">
          <mxGeometry x="390.31" y="305" width="234.37" height="182.5" as="geometry" />
        </mxCell>
        <mxCell id="1u6Tqb6OwwUfeg6lWyP9-14" value="&lt;font style=&quot;font-size: 12px&quot;&gt;&lt;b&gt;Time | Servings&lt;/b&gt;&lt;/font&gt;" style="text;html=1;points=[];align=left;verticalAlign=top;spacingTop=-4;fontSize=15;fontFamily=Verdana;fontColor=default;" vertex="1" parent="OShMLWF479sqlYJ8TnIr-46">
          <mxGeometry x="390.31" y="513" width="184.37" height="30" as="geometry" />
        </mxCell>
        <mxCell id="1u6Tqb6OwwUfeg6lWyP9-9" value="&lt;h2 style=&quot;margin: 0px 0px 20px ; padding: 0px ; border: 0px ; font-weight: inherit ; font-stretch: inherit ; font-size: 1.375rem ; line-height: 1.625rem ; vertical-align: baseline&quot;&gt;Ingredients&lt;/h2&gt;" style="text;html=1;points=[];align=left;verticalAlign=top;spacingTop=-4;fontSize=15;fontFamily=Verdana;fontColor=default;" vertex="1" parent="OShMLWF479sqlYJ8TnIr-46">
          <mxGeometry x="390.31" y="565" width="170" height="30" as="geometry" />
        </mxCell>
        <mxCell id="1u6Tqb6OwwUfeg6lWyP9-10" value="1 Lorem ipsum dolor sit amet, &lt;br&gt;2 consectetur adipisicing elit,&lt;br&gt;3 sed do eiusmod tempor &lt;br&gt;4 incididunt ut labore et dolore&lt;br&gt;5 magna aliqua.&lt;br&gt;6 rum." style="text;spacingTop=-5;whiteSpace=wrap;html=1;align=left;fontSize=12;fontFamily=Helvetica;fillColor=none;strokeColor=none;rounded=0;shadow=1;labelBackgroundColor=none;fontColor=default;" vertex="1" parent="OShMLWF479sqlYJ8TnIr-46">
          <mxGeometry x="390.31" y="615" width="250" height="90" as="geometry" />
        </mxCell>
        <mxCell id="1u6Tqb6OwwUfeg6lWyP9-13" value="&lt;b&gt;Steps&lt;/b&gt;" style="text;html=1;points=[];align=left;verticalAlign=top;spacingTop=-4;fontSize=15;fontFamily=Verdana;fontColor=default;" vertex="1" parent="OShMLWF479sqlYJ8TnIr-46">
          <mxGeometry x="681" y="260" width="170" height="30" as="geometry" />
        </mxCell>
        <mxCell id="1u6Tqb6OwwUfeg6lWyP9-21" value="1 Lorem ipsum dolor sit amet, consectetur adipisicing elit, sed do eiusmod tempor incididunt ut labore et dolore magna aliqua. Ut enim ad minim veniam, quis nostrud&lt;br&gt;&lt;br&gt;2&amp;nbsp; exercitation ullamco laboris nisi ut aliquip ex ea commodo consequat. Duis aute irure dolor in reprehenderit in voluptate velit esse cillum dolore eu fugiat nulla pariatur.&lt;br&gt;&lt;br&gt;3 Excepteur sint occaecat cupidatat non proident, sunt in culpa qui officia deserunt mollit anim id est laborum.&amp;nbsp;" style="text;spacingTop=-5;whiteSpace=wrap;html=1;align=left;fontSize=12;fontFamily=Helvetica;fillColor=none;strokeColor=none;rounded=0;shadow=1;labelBackgroundColor=none;fontColor=default;" vertex="1" parent="OShMLWF479sqlYJ8TnIr-46">
          <mxGeometry x="681" y="303" width="244.37" height="200" as="geometry" />
        </mxCell>
        <mxCell id="OShMLWF479sqlYJ8TnIr-79" value="" style="strokeWidth=1;shadow=0;dashed=0;align=center;html=1;shape=mxgraph.mockup.containers.browserWindow;rSize=0;strokeColor=#666666;mainText=,;recursiveResize=0;rounded=0;labelBackgroundColor=none;fontFamily=Verdana;fontSize=12" parent="1" vertex="1">
          <mxGeometry x="2225" y="15" width="1050" height="820" as="geometry" />
        </mxCell>
        <mxCell id="OShMLWF479sqlYJ8TnIr-80" value="" style="rounded=1;whiteSpace=wrap;html=1;fillColor=none;strokeColor=#C7C7C7;" parent="OShMLWF479sqlYJ8TnIr-79" vertex="1">
          <mxGeometry x="702" y="115" width="154" height="20" as="geometry" />
        </mxCell>
        <mxCell id="OShMLWF479sqlYJ8TnIr-81" value="Main Page" style="strokeWidth=1;shadow=0;dashed=0;align=center;html=1;shape=mxgraph.mockup.containers.anchor;fontSize=17;fontColor=#666666;align=left;" parent="OShMLWF479sqlYJ8TnIr-79" vertex="1">
          <mxGeometry x="60" y="12" width="110" height="26" as="geometry" />
        </mxCell>
        <mxCell id="OShMLWF479sqlYJ8TnIr-82" value="https://www.Team3Cookbook.com" style="strokeWidth=1;shadow=0;dashed=0;align=center;html=1;shape=mxgraph.mockup.containers.anchor;rSize=0;fontSize=17;fontColor=#666666;align=left;" parent="OShMLWF479sqlYJ8TnIr-79" vertex="1">
          <mxGeometry x="130" y="60" width="250" height="26" as="geometry" />
        </mxCell>
        <mxCell id="OShMLWF479sqlYJ8TnIr-83" value="My Cookbook" style="text;html=1;points=[];align=left;verticalAlign=top;spacingTop=-4;fontSize=30;fontFamily=Verdana" parent="OShMLWF479sqlYJ8TnIr-79" vertex="1">
          <mxGeometry x="30" y="185" width="340" height="50" as="geometry" />
        </mxCell>
        <mxCell id="OShMLWF479sqlYJ8TnIr-84" value="My Cookbook" style="text;html=1;points=[];align=left;verticalAlign=top;spacingTop=-4;fontSize=15;fontFamily=Verdana" parent="OShMLWF479sqlYJ8TnIr-79" vertex="1">
          <mxGeometry x="257" y="112" width="120" height="30" as="geometry" />
        </mxCell>
        <mxCell id="OShMLWF479sqlYJ8TnIr-85" value="" style="verticalLabelPosition=bottom;shadow=0;dashed=0;align=center;html=1;verticalAlign=top;strokeWidth=1;shape=mxgraph.mockup.markup.line;strokeColor=#999999;rounded=0;labelBackgroundColor=none;fillColor=#ffffff;fontFamily=Verdana;fontSize=12;fontColor=#000000;direction=south;" parent="OShMLWF479sqlYJ8TnIr-79" vertex="1">
          <mxGeometry x="515" y="263" width="20" height="525" as="geometry" />
        </mxCell>
        <mxCell id="OShMLWF479sqlYJ8TnIr-86" value="" style="verticalLabelPosition=bottom;shadow=0;dashed=0;align=center;html=1;verticalAlign=top;strokeWidth=1;shape=mxgraph.mockup.markup.line;strokeColor=#999999;rounded=0;labelBackgroundColor=none;fillColor=#ffffff;fontFamily=Verdana;fontSize=12;fontColor=#000000;" parent="OShMLWF479sqlYJ8TnIr-79" vertex="1">
          <mxGeometry y="131" width="1050" height="20" as="geometry" />
        </mxCell>
        <mxCell id="OShMLWF479sqlYJ8TnIr-87" value="Account" style="text;html=1;points=[];align=left;verticalAlign=top;spacingTop=-4;fontSize=15;fontFamily=Verdana" parent="OShMLWF479sqlYJ8TnIr-79" vertex="1">
          <mxGeometry x="950" y="112" width="80" height="30" as="geometry" />
        </mxCell>
        <mxCell id="OShMLWF479sqlYJ8TnIr-88" value="Search..." style="text;html=1;points=[];align=left;verticalAlign=top;spacingTop=-4;fontSize=15;fontFamily=Verdana" parent="OShMLWF479sqlYJ8TnIr-79" vertex="1">
          <mxGeometry x="706" y="112" width="120" height="30" as="geometry" />
        </mxCell>
        <mxCell id="OShMLWF479sqlYJ8TnIr-89" value="Build Recipe" style="text;html=1;points=[];align=left;verticalAlign=top;spacingTop=-4;fontSize=15;fontFamily=Verdana" parent="OShMLWF479sqlYJ8TnIr-79" vertex="1">
          <mxGeometry x="150" y="112" width="120" height="30" as="geometry" />
        </mxCell>
        <mxCell id="OShMLWF479sqlYJ8TnIr-90" value="Exolore Recipes" style="text;html=1;points=[];align=left;verticalAlign=top;spacingTop=-4;fontSize=15;fontFamily=Verdana" parent="OShMLWF479sqlYJ8TnIr-79" vertex="1">
          <mxGeometry x="15" y="112" width="120" height="30" as="geometry" />
        </mxCell>
        <mxCell id="OShMLWF479sqlYJ8TnIr-91" value="" style="rounded=1;whiteSpace=wrap;html=1;fillColor=#dae8fc;strokeColor=#6c8ebf;" parent="OShMLWF479sqlYJ8TnIr-79" vertex="1">
          <mxGeometry x="820" y="115" width="36" height="20" as="geometry" />
        </mxCell>
        <mxCell id="OShMLWF479sqlYJ8TnIr-92" value="&lt;b&gt;Breads&lt;/b&gt;" style="strokeWidth=1;shadow=0;dashed=0;align=center;html=1;shape=mxgraph.mockup.buttons.button;strokeColor=#666666;mainText=;buttonStyle=round;fontSize=17;fontStyle=0;fillColor=none;whiteSpace=wrap;rounded=0;labelBackgroundColor=none;" parent="OShMLWF479sqlYJ8TnIr-79" vertex="1">
          <mxGeometry x="30" y="293" width="450" height="60" as="geometry" />
        </mxCell>
        <mxCell id="OShMLWF479sqlYJ8TnIr-93" value="&lt;b&gt;Deserts&lt;/b&gt;" style="strokeWidth=1;shadow=0;dashed=0;align=center;html=1;shape=mxgraph.mockup.buttons.button;strokeColor=#666666;mainText=;buttonStyle=round;fontSize=17;fontStyle=0;fillColor=none;whiteSpace=wrap;rounded=0;labelBackgroundColor=none;fontColor=default;" parent="OShMLWF479sqlYJ8TnIr-79" vertex="1">
          <mxGeometry x="30" y="373" width="450" height="60" as="geometry" />
        </mxCell>
        <mxCell id="OShMLWF479sqlYJ8TnIr-94" value="&lt;b&gt;Breakfast&lt;/b&gt;" style="strokeWidth=1;shadow=0;dashed=0;align=center;html=1;shape=mxgraph.mockup.buttons.button;strokeColor=#666666;mainText=;buttonStyle=round;fontSize=17;fontStyle=0;fillColor=none;whiteSpace=wrap;rounded=0;labelBackgroundColor=none;" parent="OShMLWF479sqlYJ8TnIr-79" vertex="1">
          <mxGeometry x="30" y="453" width="450" height="60" as="geometry" />
        </mxCell>
        <mxCell id="OShMLWF479sqlYJ8TnIr-95" value="&lt;b&gt;Lunch&lt;/b&gt;" style="strokeWidth=1;shadow=0;dashed=0;align=center;html=1;shape=mxgraph.mockup.buttons.button;strokeColor=#666666;mainText=;buttonStyle=round;fontSize=17;fontStyle=0;fillColor=none;whiteSpace=wrap;rounded=0;labelBackgroundColor=none;" parent="OShMLWF479sqlYJ8TnIr-79" vertex="1">
          <mxGeometry x="30" y="615" width="450" height="60" as="geometry" />
        </mxCell>
        <mxCell id="OShMLWF479sqlYJ8TnIr-96" value="&lt;b&gt;Brunch&lt;/b&gt;" style="strokeWidth=1;shadow=0;dashed=0;align=center;html=1;shape=mxgraph.mockup.buttons.button;strokeColor=#666666;mainText=;buttonStyle=round;fontSize=17;fontStyle=0;fillColor=none;whiteSpace=wrap;rounded=0;labelBackgroundColor=none;" parent="OShMLWF479sqlYJ8TnIr-79" vertex="1">
          <mxGeometry x="30" y="535" width="450" height="60" as="geometry" />
        </mxCell>
      </root>
    </mxGraphModel>
  </diagram>
</mxfile>
